
<svg
   width="16"
   height="16"
   viewBox="0 0 16 16"
   xmlns="http://www.w3.org/2000/svg" 
   version="1.1">
 
  <g id="layer1">
    <rect
       style="fill:#0000ff;fill-rule:evenodd"
       id="rect31"
       width="2.7148819"
       height="12.127956"
       x="1.7357441"
       y="2.403338"
       ry="1.3574409" />
    <rect
       style="fill:#0000ff;fill-rule:evenodd"
       id="rect35"
       width="8.7454796"
       height="2.3365786"
       x="1.7357441"
       y="12.194715"
       ry="1.1682893" />
    <ellipse
       style="fill:#ff0000;fill-rule:evenodd;stroke-width:1.32117"
       id="path204"
       cx="13.429764"
       cy="13.151599"
       rx="1.6578581"
       ry="1.6244785" />
    <path
       style="fill:#ffff00;fill-rule:evenodd"
       id="path308"
       d="m 15.2879,12.751043 -0.916586,0.880823 0.205974,1.254413 -1.120953,-0.599536 -1.129369,0.583528 0.223799,-1.251356 -0.903962,-0.893774 1.259268,-0.173844 0.57069,-1.135911 0.554471,1.143915 z"
       transform="rotate(180,13.446075,13.162269)" />
    <path
       style="fill:#ffff00;fill-rule:evenodd"
       id="path310"
       d="M 12.595271,11.082058 11.941611,9.6908168 10.42497,9.4405706 11.546127,8.3889857 11.315457,6.869244 12.66203,7.6105699 14.03611,6.9215641 13.747181,8.4313137 14.827078,9.5252264 13.301937,9.716977 Z"
       transform="rotate(180,13.011526,10.926661)" />
    <rect
       style="fill:#0000ff;fill-rule:evenodd"
       id="rect35-3"
       width="8.7454796"
       height="2.3365786"
       x="1.7357441"
       y="2.403338"
       ry="1.1682893" />
  </g>
  
</svg>
